<?xml version="1.0" encoding="UTF-8"?>
<svg fill="#FFFFFF" width="100pt" height="100pt" version="1.1" viewBox="0 0 100 100" xmlns="http://www.w3.org/2000/svg">
 <path d="m71.199 34.898h-42.398c-5.8008 0-10.398 4.6992-10.398 10.398s4.6992 10.398 10.398 10.398h42.301c5.8008 0 10.398-4.6992 10.398-10.398 0-5.6953-4.6016-10.398-10.301-10.398zm-42.301 16.5c-3.3008 0-6.1016-2.6992-6.1016-6.1016 0-3.3008 2.6992-6.1016 6.1016-6.1016 3.4023 0.003907 6.1016 2.8047 6.1016 6.1055 0 3.3984-2.8008 6.0977-6.1016 6.0977zm31.5-4.5977h-20.797v-7.1992h20.898v7.1992zm10.203 4.5977c-3.3008 0-6.1016-2.6992-6.1016-6.1016 0-3.3008 2.6992-6.1016 6.1016-6.1016 3.3984 0 6.1016 2.6992 6.1016 6.1016-0.003906 3.4023-2.7031 6.1016-6.1016 6.1016zm22.398-34.199h-86c-2.5 0-4.5 2-4.5 4.5v55.199c0 2.5 2 4.5 4.5 4.5h4v0.60156c0 0.39844 0.39844 0.80078 0.80078 0.80078h76.5c0.39844 0 0.80078-0.39844 0.80078-0.80078v-0.60156h4c2.5 0 4.5-2 4.5-4.5v-55.199c-0.10156-2.5-2.1016-4.5-4.6016-4.5zm-68 58.199c0-1.8008 1.3984-3.1992 3.1992-3.1992s3.1992 1.3984 3.1992 3.1992c0 1.8008-1.3984 3.1992-3.1992 3.1992-1.8008 0.003906-3.1992-1.3984-3.1992-3.1992zm9.8984-3.1992c0-1.8008 1.3984-3.1992 3.1992-3.1992 1.8008 0 3.1992 1.3984 3.1992 3.1992s-1.3984 3.1992-3.1992 3.1992c-1.7969 0-3.1992-1.5-3.1992-3.1992zm23.801 0c0-1.8008 1.3984-3.1992 3.1992-3.1992 1.8008 0 3.1992 1.3984 3.1992 3.1992s-1.3984 3.1992-3.1992 3.1992c-1.7969 0-3.1992-1.5-3.1992-3.1992zm9.9023 3.1992c0-1.8008 1.3984-3.1992 3.1992-3.1992s3.1992 1.3984 3.1992 3.1992c0 1.8008-1.3984 3.1992-3.1992 3.1992-1.8008 0.003906-3.1992-1.3984-3.1992-3.1992zm23.5-13h-10.902l3.6992 15.5h-4.5l-4.8008-13.102-51.199 0.003906-4.8008 13.102h-4.5l3.6992-15.5-10.898-0.003906v-40.098h84.199z"/>
</svg>
