<?xml version="1.0" encoding="UTF-8"?>
<svg fill="#FFFFFF" width="100pt" height="100pt" version="1.1" viewBox="0 0 100 100" xmlns="http://www.w3.org/2000/svg">
 <path d="m87 18h-74c-5.5117 0-10 4.4883-10 10v44c0 5.5117 4.4883 10 10 10h74c5.5117 0 10-4.4883 10-10v-44c0-5.5117-4.4883-10-10-10zm-57.172 60 6-6h28.34l6 6zm63.172-6c0 3.3086-2.6914 6-6 6h-11.172l-9.4102-9.4102c-0.37891-0.37891-0.87891-0.58984-1.4102-0.58984h-30c-0.53125 0-1.0391 0.21094-1.4102 0.58984l-9.4102 9.4102h-11.172c-3.3086 0-6-2.6914-6-6l0.003906-44c0-3.3086 2.6914-6 6-6h74c3.3086 0 6 2.6914 6 6v44z"/>
 <path d="m72.5 33h-45c-8 0-14.5 6.5-14.5 14.5s6.5 14.5 14.5 14.5h45c8 0 14.5-6.5 14.5-14.5s-6.5-14.5-14.5-14.5zm-55.5 14.5c0-5.7891 4.7109-10.5 10.5-10.5s10.5 4.7109 10.5 10.5-4.7109 10.5-10.5 10.5-10.5-4.7109-10.5-10.5zm20.469 10.5c2.7812-2.6406 4.5312-6.3711 4.5312-10.5s-1.75-7.8594-4.5312-10.5h25.059c-2.7812 2.6406-4.5312 6.3711-4.5312 10.5s1.75 7.8594 4.5312 10.5zm35.031 0c-5.7891 0-10.5-4.7109-10.5-10.5s4.7109-10.5 10.5-10.5 10.5 4.7109 10.5 10.5-4.7109 10.5-10.5 10.5z"/>
 <path d="m72.5 40.5c-3.8594 0-7 3.1406-7 7s3.1406 7 7 7 7-3.1406 7-7-3.1406-7-7-7zm0 10c-1.6484 0-3-1.3516-3-3s1.3516-3 3-3 3 1.3516 3 3-1.3516 3-3 3z"/>
 <path d="m34.5 47.5c0-3.8594-3.1406-7-7-7s-7 3.1406-7 7 3.1406 7 7 7 7-3.1406 7-7zm-10 0c0-1.6484 1.3516-3 3-3s3 1.3516 3 3-1.3516 3-3 3-3-1.3516-3-3z"/>
 <path d="m15 27.5c0 3.332-5 3.332-5 0s5-3.332 5 0"/>
 <path d="m15 72.5c0 3.332-5 3.332-5 0s5-3.332 5 0"/>
 <path d="m90 72.5c0 3.332-5 3.332-5 0s5-3.332 5 0"/>
 <path d="m90 27.5c0 3.332-5 3.332-5 0s5-3.332 5 0"/>
</svg>
