<svg xmlns="http://www.w3.org/2000/svg" viewBox="0 0 64 64" width="64" height="64">
  <defs>
    <linearGradient id="bg" x1="0" y1="0" x2="1" y2="1">
      <stop offset="0" stop-color="#2a0f5a"/>
      <stop offset="1" stop-color="#0a0613"/>
    </linearGradient>
    <linearGradient id="neon" x1="0" y1="0" x2="1" y2="1">
      <stop offset="0" stop-color="#ff4fd8"/>
      <stop offset="1" stop-color="#7a3bff"/>
    </linearGradient>
  </defs>
  <rect width="64" height="64" rx="12" fill="url(#bg)"/>
  <rect x="3.5" y="3.5" width="57" height="57" rx="10" fill="none" stroke="#7a3bff" stroke-width="1.5" opacity="0.6"/>
  <g fill="url(#neon)">
    <path d="M12 18h40a4 4 0 0 1 4 4v20a4 4 0 0 1-4 4h-6l-4-4H22l-4 4h-6a4 4 0 0 1-4-4V22a4 4 0 0 1 4-4zm0 4a0 0 0 0 0 0 0v20a0 0 0 0 0 0 0h4.34l4-4h23.32l4 4H52V22H12z"/>
    <circle cx="22" cy="32" r="6"/>
    <circle cx="42" cy="32" r="6"/>
  </g>
  <circle cx="22" cy="32" r="2" fill="#0a0613"/>
  <circle cx="42" cy="32" r="2" fill="#0a0613"/>
  <rect x="20" y="42" width="24" height="2" fill="#ff4fd8" opacity="0.8"/>
</svg>
